<?xml version="1.0" encoding="utf-8"?>
<!-- Generator: Adobe Illustrator 23.0.2, SVG Export Plug-In . SVG Version: 6.00 Build 0)  -->
<svg version="1.1" id="Layer_1" xmlns="http://www.w3.org/2000/svg" xmlns:xlink="http://www.w3.org/1999/xlink" x="0px" y="0px"
	 viewBox="0 0 283.46 283.46" style="enable-background:new 0 0 283.46 283.46;" xml:space="preserve">
<style type="text/css">
	.st0{fill:#FFFFFF;}
</style>
<g>
	<path d="M41.26,198.78c16.71,0,31.98,0,45.86,0c0,2.49-0.54,4.93,0.24,6.82c0.36,0.86,3.3,0.78,5.07,0.76
		c0.25,0,0.48-2.07,0.72-3.19c-1.41-0.09-2.82-0.18-5.13-0.34c1.44-1,2.66-2.51,3.89-2.52c1.26-0.01,3.66,1.59,3.59,2.25
		c-0.29,2.5-1.39,4.91-2.37,7.94c21.49,21.66,66.98,26,96.03,0.1c-1.05-2.82-2.27-5.34-2.76-7.99c-0.11-0.62,2.27-2.38,3.51-2.38
		c1.26,0,2.51,1.52,4.26,2.72c-2.51,0-3.92,0-5.32,0c0.29,1.27,0.58,2.54,0.87,3.8c2.35-0.64,4.71-1.27,8.15-2.2
		c-2.3-2.72-3.41-4.04-4.95-5.87c15.8,0,31.16,0,46.52,0c0.06,0.3,0.12,0.61,0.19,0.91c-1.15,0.3-2.42,1.07-3.42,0.81
		c-7.57-2.01-11.08,3.43-14.55,8.24c-12.37,17.18-28.12,29.77-48,37.04c-16.36,5.97-33.25,9.39-50.24,4.74
		c-19.04-5.21-37.85-11.51-50.85-28.37c-5.19-6.74-11.09-13.09-17.51-18.63C52.02,200.85,47.01,200.61,41.26,198.78z M58.99,200.61
		c19.92,30.63,47.13,47.02,82.6,46.76c34.9-0.25,61.76-16.46,81.4-47.15c-4.62,0-8.03,0.31-11.36-0.07
		c-6.11-0.69-10.3,1.49-14.64,6.11c-29.11,30.93-77.55,32.9-108.21,3.42c-8.3-7.98-16.26-10.74-26.71-9.63
		C61.47,200.11,60.88,200.26,58.99,200.61z"/>
	<path d="M131.19,94.15c7.35,0,13.32,0,20.28,0c-2.13,5.18,3.36,11.54-3.73,15.04c3.07,1.4,5.84,9.25,3.7,12.76
		c-0.56,0.92-2.21,1.61-3.39,1.65c-4.62,0.16-9.28,0.29-13.85-0.19c-1.13-0.12-2.83-2.57-2.88-3.99
		C131.05,111.23,131.19,103.01,131.19,94.15z"/>
	<path d="M164.94,71.17c24.8,4.71,49.13,33.41,50.76,59.32c-28.28,0-56.54,0-85.19,0c0.29-1.89,0.56-3.68,0.92-6.02
		c5.84,0,11.51-0.04,17.17,0.04c0.92,0.01,2.56,0.42,2.63,0.86c1.1,6.54,6.16,4.18,9.64,3.96c11.89-0.75,23.73-2.15,35.62-2.96
		c2.58-0.17,5.24,1.47,7.88,1.57c1.82,0.07,3.68-1.1,5.53-1.71c-1.1-1.25-2.2-2.5-3.83-4.34c1.92-0.09,3.82-0.19,6.21-0.3
		C204.68,97,188.42,80.78,164.94,71.17z"/>
	<path d="M38.17,130.79c7.2-0.58,8.93-6.07,10.25-11.6c3.69-15.46,23.39-44.28,32.97-52.04c8.18-6.62,18.54-10.58,28.05-15.48
		c1.48-0.76,3.69-0.11,5.94,1.12c-1.4,0.69-2.75,1.5-4.21,2.05C78.79,66.98,58.61,89.93,51.34,123.7c-1.3,6.05-3.43,8.01-9.08,7.13
		C40.93,130.61,39.53,130.79,38.17,130.79z"/>
	<path d="M144.98,220.53c0.31-4.2,0.65-8.4,0.93-12.61c0.55-8.54-0.9-9.51-9.86-6.31c0,4.07,0,8.26,0,12.81
		c1.39,0.28,2.89,0.58,4.23,0.85c-0.39,2.33-0.75,4.44-1.1,6.5c-6-2.64-13.29-16.45-11.55-22.67c0.44-1.57,1.82-3.41,3.24-4.08
		c6.56-3.09,13.55-3.33,19.87,0.05c2.02,1.08,3.88,5.72,3.24,8c-1.76,6.27-4.88,12.14-7.46,18.18
		C146,221.02,145.49,220.78,144.98,220.53z"/>
	<path d="M167.93,51.4c2.17,0.19,4.53-0.12,6.48,0.64c27.73,10.92,46.76,30.52,57.52,58.25c0.48,1.23,0.46,2.67,0.55,4.02
		c0.62,10.09,2.65,12.76,12.83,16.13c-1.75,0.16-2.87,0.18-3.96,0.36c-6.01,1-8.51-1.05-9.92-7.54
		c-7.27-33.53-27.42-56.25-59.49-68.37c-1.43-0.54-2.83-1.18-4.24-1.77C167.77,52.54,167.85,51.97,167.93,51.4z"/>
	<path d="M81.9,94.84c-0.35,1.71-0.35,3.6-1.1,5.11c-3.51,6.97-7.22,13.84-11.22,21.43c3.13,0.21,5.03,0.34,6.93,0.46
		c0.1,0.34,0.2,0.68,0.31,1.02c-1.42,0.52-2.83,1.04-4.35,1.6c0.56,4.87,4.17,4.38,6.56,3.34c4.81-2.09,9.03-0.3,13.64,0.32
		c7.74,1.05,15.64,1,23.48,1.32c3.12,0.13,6.24,0.02,9.35,0.94c-19.49,0-38.98,0-58.05,0c0.73-13.76,6.69-25.02,14.59-35.44
		C82.02,94.93,81.9,94.84,81.9,94.84z"/>
	<path d="M102.51,120.22c-2.31-8.16-4.61-16.33-6.92-24.49c0.67-0.19,1.34-0.38,2.01-0.57c1.85,7.03,3.71,14.07,5.56,21.1
		c0.4-0.08,0.79-0.16,1.19-0.24c0-3.76,0-7.53,0-11.29c0.39-0.07,0.77-0.13,1.16-0.2c0.76,3.24,1.51,6.48,1.99,8.52
		c3.74-0.47,7.63-1.2,11.53-1.25c0.8-0.01,1.64,2.51,1.83,2.82c-3.45-0.08-7.89-1.47-9.34,0.04c-3.82,3.98,0.01,7.55,3.41,11.27
		c-2.32-0.48-3.79-0.79-5.26-1.1C107.29,123.29,104.9,121.75,102.51,120.22z"/>
	<path d="M173.11,124.85c-1.46,0.29-2.92,0.59-4.98,1c3.17-3.93,7.21-7.22,2.86-11.92c-2.22-2.4-4.91-1.41-9.18,2.11
		c0.46-1.28,0.54-3.03,1.45-3.77c4.66-3.81,8.27-1.19,11.64,2.57c0.85-3.57,1.65-6.95,2.46-10.33c0.34,0.07,0.68,0.13,1.02,0.2
		c0,3.79,0,7.59,0,11.38c0.4,0.11,0.8,0.22,1.2,0.32c1.92-7.14,3.84-14.28,5.76-21.42c0.6,0.16,1.21,0.33,1.81,0.49
		c-2.24,8.17-4.47,16.35-6.71,24.52C178,121.61,175.56,123.23,173.11,124.85z"/>
	<path d="M82.02,94.93c9.38-11.63,20.9-20.12,35.69-23.76c-1.06,0.66-2.06,1.48-3.2,1.96c-10.8,4.58-20.34,10.89-28.2,19.72
		c-0.98,1.1-2.91,1.35-4.41,1.98C81.9,94.84,82.02,94.93,82.02,94.93z"/>
	<path d="M173.55,80.98c7.04,4.93,8.36,9.43,5.27,17.01c-0.82,2-1.89,3.89-2.77,5.87c-0.87,1.95-1.66,3.94-2.58,6.17
		c-2.3-0.78-4.43-1.5-8.42-2.85c9.71,0.63,9.38-6.4,11.71-10.97C179.67,90.49,177.67,85.56,173.55,80.98z"/>
	<path d="M173.11,124.85c2.45-1.62,4.89-3.23,7.34-4.85c1.35-1.59,2.71-3.18,4.06-4.77c0.25,0.11,0.49,0.23,0.74,0.34
		c-1.4,2.72-2.79,5.44-4.58,8.91c5.39-0.71,10.31-1.36,15.5-2.04C189.58,127,177.36,128.19,173.11,124.85z"/>
	<path d="M109.09,110.19c-1.77-8.74-10.46-15.74-4.42-25.21c0.7,4.33,0.69,8.9,2.29,12.81c1.57,3.81,1.39,10,8.41,9.94
		C113.42,108.5,111.46,109.27,109.09,110.19z"/>
	<path d="M102.51,120.22c2.39,1.54,4.78,3.07,7.16,4.61c-1.81,0.69-3.66,2.05-5.43,1.95c-4.74-0.28-9.44-1.2-14.16-1.86
		c0.06-0.53,0.13-1.05,0.19-1.58c3.76,0.25,7.53,0.51,11.66,0.79c-1.64-3.31-3.11-6.27-4.57-9.23c0.23-0.1,0.47-0.21,0.7-0.31
		C99.55,116.46,101.03,118.34,102.51,120.22z"/>
	<path d="M143,212.89c-5.8,0.06-5.8,0.06-4.72-9.38C143.86,202.78,143.86,202.78,143,212.89z"/>
	<g>
		<path d="M125.26,49.19c-0.08-1.77,0.09-3.58-0.28-5.29c-2.04-9.54-3.12-8.01,6.97-11.56c8.06-2.84,15.95-1.36,23.38,2.31
			c1.16,0.57,1.97,3.04,1.93,4.6c-0.07,3-0.86,5.99-1.16,7.81c2.93,0,5.4-0.43,7.54,0.24c0.72,0.22,1.4,3.72,0.7,4.83
			c-2.7,4.25-5.68,1.8-9.06-1.54c0,9.77,0.61,18.38-0.23,26.83c-0.49,4.95-2.72,10.02-5.37,14.3c-0.93,1.5-5.42,1.02-8.28,1.07
			c-11.04,0.19-15.46-4.88-15.33-16.22c0.1-9.17-0.59-18.34-0.93-27.52L125.26,49.19z"/>
		<path d="M125.14,49.07c-0.99,1.88-1.97,3.76-3.59,6.84c-2.3-2.26-4.48-3.64-5.32-5.59c-0.37-0.87,2.11-4.24,3.02-4.14
			c2.09,0.24,4.02,1.92,6.02,3.02C125.26,49.19,125.14,49.07,125.14,49.07z"/>
		<path d="M127.57,63.85c-3.5,1.72-5.46,3.27-7.54,3.45c-0.91,0.08-2.97-2.75-2.84-4.09c0.15-1.46,2.48-3.98,3.43-3.8
			C122.62,59.8,124.34,61.65,127.57,63.85z"/>
		<path d="M154.94,78.46c1.94-2.43,3.13-3.92,5.18-6.49c1.65,2.14,3.47,3.74,4.12,5.72c0.28,0.85-1.99,3.65-2.9,3.56
			C159.27,81.03,157.32,79.58,154.94,78.46z"/>
		<path d="M121.02,71.87c2.2,2.67,3.3,4,5.16,6.26c-2.05,1.23-3.89,2.87-5.98,3.32c-0.89,0.2-3.51-2.45-3.29-3.15
			C117.58,76.21,119.27,74.45,121.02,71.87z"/>
		<path d="M155.24,62.62c1.89-1.1,3.72-2.86,5.7-3.04c1.03-0.09,2.73,2.46,3.28,4.11c0.25,0.75-1.56,3.14-2.43,3.13
			c-2.09-0.01-4.18-1-6.27-1.59C155.42,64.36,155.33,63.49,155.24,62.62z"/>
	</g>
	<g>
		<path d="M68.49,135.68h7.23c0,8.01-0.18,16,0.14,23.97c0.03,0.84,0.44,1.67,0.96,2.5c0.9,1.41,2.94,1.38,3.81-0.04
			c0.5-0.83,0.89-1.67,0.93-2.52c0.32-7.65,0.13-15.32,0.13-23.76c2.4-0.12,4.83-0.25,7.14-0.37c0,9.89,0.22,19.4-0.08,28.9
			c-0.19,5.75-4.58,9.33-10.21,9.19c-5.84-0.15-9.81-3.9-9.98-10.19C68.3,154.33,68.49,145.31,68.49,135.68z"/>
		<g>
			<path d="M119.58,173.29c0-13.01,0-25.02,0-37.65c4.48,0,8.94-0.37,13.32,0.1c5.13,0.55,7.22,5.1,6.5,11.81
				c-0.28,2.66-0.14,5.59,0.66,8.12c3.3,10.4-1.88,17.67-12.83,17.62C124.75,173.28,122.27,173.29,119.58,173.29z M127.15,165.77
				c3.88,0.55,6.32-0.05,6.26-4.15c-0.06-3.86-2.23-4.92-5.63-4.37c-0.26,0.46-0.6,0.79-0.61,1.12
				C127.13,160.67,127.15,162.97,127.15,165.77z"/>
			<path d="M180.11,135.84c3.07,0,5.51,0,7.87,0c0,12.37,0,24.51,0,36.97c-5.74-1.04-6.04-3.76-10.09-10.14
				c-2.05-3.23-1.38-1.88-4.18-6.39c0,6.28,0,11.18,0,16.55c-2.47,0-5.22,0-7.89,0c0-12.34,0-24.49,0-36.76
				c5.15-0.63,4.67-0.13,8.21,5.67c1.58,2.58,4.05,5.06,6.08,7.72C180.11,145.16,180.11,140.85,180.11,135.84z"/>
			<path d="M190.75,173.22c0-12.72,0-24.74,0-37.4c6.88-0.14,14.38-2.13,20.02,4.74c4.63,5.64,5.1,19.14,1.04,26.25
				C206.82,175.55,198.5,172.95,190.75,173.22z M198.36,164.49c6.49,0.44,8.82-2.41,8.82-10.39c0-7.65-2.14-10.08-8.82-9.71
				C198.36,151.09,198.36,157.8,198.36,164.49z"/>
			<path d="M163.35,173.05h-7.66c-0.31-2.17-0.63-4.35-0.97-6.72c-0.48-3.35-5.41-3.43-5.86-0.07c-0.29,2.12-0.24,4.56-0.58,6.58
				l-7.76-0.01c2.08-12.13,4.17-24.28,6.33-36.88h10.07C159.04,148.17,161.17,160.49,163.35,173.05z"/>
			<polyline class="st0" points="152.21,145.66 154.31,156.48 149.64,156.48 			"/>
			<path class="st0" d="M127.15,165.77c0-2.8-0.02-5.1,0.02-7.4c0.01-0.33,0.35-0.66,0.61-1.12c3.39-0.55,5.57,0.51,5.63,4.37
				C133.47,165.72,131.02,166.32,127.15,165.77z"/>
			<path class="st0" d="M127.15,149.9c0-2.8-0.02-5.1,0.02-7.4c0.01-0.33,0.35-0.66,0.61-1.12c3.39-0.55,5.57,0.51,5.63,4.37
				C133.47,149.85,131.02,150.45,127.15,149.9z"/>
			<path class="st0" d="M198.36,164.49c0-6.69,0-13.4,0-20.09c6.67-0.37,8.81,2.06,8.82,9.71
				C207.18,162.09,204.85,164.93,198.36,164.49z"/>
		</g>
		<rect x="96.89" y="150.07" width="14.71" height="6.4"/>
	</g>
	<g>
		<path d="M77.3,188.38c0,0.11-0.02,0.18-0.07,0.2c-0.02,0.02-0.1,0.03-0.23,0.04c-0.33,0.03-0.81,0.05-1.42,0.05
			c-0.86,0-1.37-0.02-1.52-0.05c-0.15-0.03-0.23-0.1-0.23-0.21c0-0.41,0.02-1.04,0.06-1.87c0.04-0.83,0.06-1.45,0.06-1.87
			c0-0.2-0.06-0.32-0.18-0.35c-0.19-0.04-0.85-0.06-1.99-0.06c-1.15,0-1.82,0.02-2.01,0.06c-0.12,0.03-0.18,0.14-0.18,0.35
			c0,0.41,0.01,1.02,0.04,1.83c0.03,0.81,0.04,1.42,0.04,1.83c0,0.16-0.07,0.25-0.22,0.27c-0.18,0.03-0.69,0.05-1.55,0.05
			c-0.74,0-1.21-0.02-1.42-0.05c-0.16-0.03-0.24-0.11-0.24-0.24c0-0.57,0.03-1.42,0.09-2.56s0.09-2,0.09-2.57
			c0-0.61-0.03-1.52-0.08-2.74c-0.05-1.22-0.08-2.13-0.08-2.74c0-0.12,0.06-0.17,0.17-0.17c0.17,0,0.43,0.01,0.77,0.02
			c0.34,0.02,0.6,0.02,0.77,0.02c0.18,0,0.44-0.01,0.79-0.02s0.62-0.02,0.79-0.02c0.09,0,0.14,0.05,0.14,0.14
			c0,0.39-0.03,0.98-0.09,1.76c-0.06,0.78-0.09,1.37-0.09,1.76c0,0.18,0.05,0.29,0.16,0.32c0.14,0.04,0.85,0.06,2.11,0.06
			c1.17,0,1.86-0.02,2.04-0.06c0.13-0.03,0.2-0.14,0.2-0.32c0-0.38-0.02-0.95-0.06-1.71c-0.04-0.76-0.06-1.33-0.06-1.72
			c0-0.16,0.07-0.24,0.21-0.24c0.16,0,0.4,0.01,0.73,0.02s0.57,0.02,0.74,0.02c0.16,0,0.4-0.01,0.73-0.02s0.57-0.02,0.74-0.02
			c0.16,0,0.24,0.06,0.24,0.19c0,0.6-0.03,1.51-0.08,2.73s-0.08,2.13-0.08,2.73c0,0.57,0.03,1.43,0.09,2.57S77.3,187.81,77.3,188.38
			z"/>
		<path d="M86.68,184.76c0,1.19-0.38,2.16-1.15,2.91c-0.77,0.74-1.77,1.12-3.02,1.12c-1.21,0-2.2-0.37-2.98-1.1
			c-0.78-0.73-1.17-1.68-1.17-2.83c0-1.21,0.37-2.2,1.12-2.96s1.76-1.13,3.03-1.13c1.24,0,2.25,0.37,3.01,1.11
			S86.68,183.57,86.68,184.76z M83.98,184.76c0-0.41-0.13-0.78-0.4-1.1c-0.27-0.32-0.62-0.47-1.05-0.47c-0.43,0-0.79,0.16-1.07,0.49
			c-0.26,0.3-0.4,0.66-0.4,1.08c0,0.42,0.13,0.79,0.4,1.09c0.28,0.33,0.64,0.49,1.07,0.49c0.43,0,0.78-0.16,1.06-0.49
			C83.85,185.54,83.98,185.18,83.98,184.76z"/>
		<path d="M96.15,181.48c0,0.39-0.02,0.97-0.06,1.74c-0.04,0.78-0.06,1.36-0.06,1.74c0,0.38,0.01,0.94,0.04,1.7
			c0.03,0.75,0.04,1.32,0.04,1.69c0,0.14-0.07,0.23-0.21,0.27c-0.21,0.05-0.65,0.08-1.33,0.08c-0.6,0-1.02-0.02-1.25-0.05
			c-0.1-0.02-0.17-0.08-0.2-0.19c-0.02-0.16-0.03-0.31-0.05-0.47c-0.03-0.24-0.07-0.36-0.12-0.36c0.08,0-0.2,0.18-0.83,0.53
			c-0.63,0.36-1.21,0.53-1.72,0.53c-1.46,0-2.32-0.63-2.59-1.88c-0.12-0.58-0.18-1.42-0.18-2.53c0-1.19,0.1-2.14,0.3-2.83
			c0.06-0.21,0.17-0.32,0.34-0.32c0.25,0,0.64,0,1.15,0.01c0.52,0,0.9,0.01,1.15,0.01c0.17,0,0.26,0.07,0.26,0.2
			c0,0.04-0.01,0.09-0.02,0.17c-0.12,0.71-0.17,1.43-0.17,2.17c0,0.91,0.03,1.53,0.09,1.87c0.1,0.58,0.46,0.86,1.08,0.86
			c0.24,0,0.5-0.1,0.79-0.31s0.43-0.42,0.44-0.64c0.01-0.19,0.02-1.51,0.02-3.94c0-0.17,0.01-0.27,0.04-0.31
			c0.03-0.05,0.13-0.08,0.3-0.08c0.27,0,0.67,0,1.21,0.01c0.54,0.01,0.95,0.01,1.21,0.01c0.17,0,0.26,0.04,0.29,0.12
			C96.15,181.33,96.15,181.4,96.15,181.48z"/>
		<path d="M102.33,182.27c0,0.05-0.04,0.12-0.12,0.21c-0.15-0.04-0.31-0.05-0.46-0.05c-0.32,0-0.6,0.07-0.82,0.2
			c-0.26,0.16-0.4,0.38-0.4,0.67c0,0.18,0.14,0.42,0.42,0.7c0.42,0.42,0.68,0.71,0.78,0.86c0.28,0.4,0.42,0.82,0.42,1.28
			c0,0.27-0.06,0.55-0.16,0.85c-0.13,0.33-0.29,0.57-0.48,0.72c-0.41,0.33-0.88,0.62-1.42,0.85c-0.59,0.24-1.13,0.36-1.62,0.36
			c-0.11,0-0.36-0.28-0.74-0.85c-0.38-0.57-0.57-0.92-0.57-1.04c0-0.05,0.03-0.08,0.09-0.09c0.38-0.07,0.77-0.14,1.16-0.2
			c0.48-0.15,0.72-0.39,0.72-0.72c0-0.23-0.14-0.5-0.42-0.8c-0.5-0.53-0.76-0.81-0.78-0.84c-0.28-0.38-0.42-0.77-0.42-1.19
			c0-0.79,0.42-1.45,1.25-2c0.75-0.49,1.55-0.73,2.4-0.73c0.09,0,0.3,0.28,0.65,0.84C102.15,181.84,102.33,182.17,102.33,182.27z"/>
		<path d="M111.06,184.36c0,0.53-0.18,0.83-0.54,0.9c-0.06,0.01-0.63,0.07-1.7,0.17c-0.65,0.07-1.61,0.15-2.9,0.24
			c0.08,0.34,0.31,0.6,0.7,0.78c0.32,0.15,0.68,0.22,1.09,0.22c0.49,0,0.98-0.13,1.47-0.38c0.21-0.13,0.42-0.25,0.63-0.38
			c0.12,0.05,0.31,0.32,0.58,0.8s0.41,0.79,0.41,0.92c0,0.04-0.04,0.1-0.12,0.18c-0.67,0.69-1.71,1.03-3.12,1.03
			c-1.31,0-2.36-0.36-3.16-1.09c-0.82-0.74-1.24-1.72-1.24-2.96c0-1.21,0.37-2.19,1.1-2.96c0.76-0.8,1.76-1.19,3.01-1.19
			c1.05,0,1.95,0.37,2.69,1.1C110.69,182.47,111.06,183.35,111.06,184.36z M108.17,183.88c0-0.33-0.12-0.61-0.36-0.86
			c-0.24-0.25-0.53-0.37-0.86-0.37c-0.35,0-0.63,0.14-0.86,0.42c-0.21,0.26-0.31,0.56-0.31,0.9c0,0.14,0.08,0.21,0.23,0.21
			c0.41,0,1.04-0.06,1.89-0.18C108.08,183.98,108.17,183.93,108.17,183.88z"/>
		<path d="M121.24,183.55c0,0.13-0.07,0.19-0.21,0.19c-0.59,0-1.06-0.02-1.4-0.05c0.02,0.39,0.03,0.94,0.05,1.64
			c0.01,0.3,0.03,0.82,0.07,1.56c0.04,0.67,0.06,1.18,0.06,1.55c0,0.11-0.08,0.17-0.23,0.19c-0.19,0.02-0.65,0.03-1.4,0.03
			c-0.62,0-1.02-0.02-1.21-0.05c-0.19-0.03-0.28-0.14-0.28-0.32v-4.33c0-0.15-0.11-0.23-0.33-0.23c-0.04,0-0.1,0-0.19,0.01
			s-0.15,0.01-0.19,0.01c-0.15,0-0.23-0.04-0.24-0.13c-0.05-0.46-0.07-1.12-0.07-1.99c0-0.19,0.1-0.31,0.31-0.35
			c0.19-0.02,0.38-0.03,0.57-0.04c-0.03-0.42-0.04-0.75-0.04-0.98c0-0.9,0.18-1.55,0.55-1.96c0.73-0.81,1.91-1.22,3.54-1.22
			c0.11,0,0.18,0.03,0.2,0.09c0.04,0.24,0.11,0.58,0.19,1.04c0.01,0.04,0.04,0.19,0.11,0.44c0.05,0.19,0.07,0.34,0.07,0.45
			c0,0.13-0.19,0.21-0.58,0.24c-0.45,0.05-0.73,0.13-0.83,0.24c-0.18,0.19-0.27,0.56-0.27,1.11c0,0.17,0.01,0.33,0.04,0.49
			c0.15,0,0.39,0,0.72-0.02c0.32-0.01,0.57-0.02,0.73-0.02c0.17,0,0.25,0.06,0.25,0.17c0,0.25,0,0.62,0.01,1.11
			S121.24,183.31,121.24,183.55z"/>
		<path d="M130.06,184.76c0,1.19-0.38,2.16-1.15,2.91s-1.77,1.12-3.02,1.12c-1.21,0-2.2-0.37-2.98-1.1
			c-0.78-0.73-1.17-1.68-1.17-2.83c0-1.21,0.37-2.2,1.12-2.96s1.76-1.13,3.03-1.13c1.24,0,2.24,0.37,3.01,1.11
			S130.06,183.57,130.06,184.76z M127.35,184.76c0-0.41-0.13-0.78-0.4-1.1c-0.27-0.32-0.62-0.47-1.05-0.47
			c-0.43,0-0.79,0.16-1.07,0.49c-0.26,0.3-0.4,0.66-0.4,1.08c0,0.42,0.13,0.79,0.4,1.09c0.28,0.33,0.64,0.49,1.07,0.49
			c0.43,0,0.78-0.16,1.06-0.49C127.23,185.54,127.35,185.18,127.35,184.76z"/>
		<path d="M136.51,183.73c0,0.2-0.12,0.31-0.35,0.31c-0.1,0-0.26-0.01-0.46-0.02c-0.2-0.01-0.35-0.02-0.45-0.02
			c-0.46,0-0.77,0.07-0.93,0.2c-0.17,0.14-0.25,0.41-0.25,0.83c0,0.22,0,0.57,0.01,1.02c0.01,0.46,0.01,0.8,0.01,1.03
			c0,0.15,0.01,0.38,0.03,0.68c0.02,0.3,0.03,0.53,0.03,0.67c0,0.13-0.09,0.2-0.27,0.21c-0.26,0.02-0.67,0.03-1.21,0.03
			c-0.52,0-0.94-0.02-1.25-0.05c-0.18-0.02-0.27-0.11-0.27-0.26c0-0.42,0-1.05,0.01-1.88c0-0.84,0.01-1.46,0.01-1.88
			c0-1.23-0.12-2.24-0.35-3.04c-0.01-0.05-0.02-0.09-0.02-0.12c0-0.08,0.04-0.13,0.12-0.16c0.3-0.03,0.74-0.09,1.33-0.17
			c0.87-0.16,1.31-0.24,1.34-0.24c0.1,0,0.16,0.16,0.19,0.49c0.03,0.33,0.08,0.5,0.15,0.5c-0.08,0,0.15-0.14,0.68-0.41
			c0.53-0.28,1.03-0.41,1.52-0.41c0.31,0,0.46,0.06,0.46,0.19c0,0.15-0.02,0.37-0.05,0.64c-0.03,0.3-0.05,0.51-0.06,0.64
			c0,0.15,0,0.35,0.01,0.61C136.51,183.42,136.51,183.63,136.51,183.73z"/>
		<path d="M154.85,188.33c0,0.18-0.08,0.29-0.25,0.31c-0.16,0.02-0.57,0.03-1.22,0.03c-0.67,0-1.09-0.02-1.25-0.05
			c-0.17-0.03-0.25-0.16-0.25-0.38c0-0.24,0.01-0.6,0.02-1.08c0.02-0.48,0.02-0.84,0.02-1.08c0-0.92-0.01-1.57-0.03-1.96
			c-0.03-0.62-0.34-0.93-0.93-0.93c-0.26,0-0.51,0.1-0.77,0.31c-0.25,0.21-0.4,0.44-0.42,0.69c-0.02,0.22-0.03,0.86-0.03,1.93
			c0,0.25,0.01,0.62,0.02,1.12c0.02,0.5,0.03,0.88,0.03,1.13c0,0.17-0.08,0.26-0.24,0.26h-2.5c-0.15,0-0.23-0.11-0.23-0.32
			c0-0.25,0.01-0.62,0.02-1.11s0.02-0.86,0.02-1.12c0-0.19,0-0.49-0.02-0.88c-0.01-0.39-0.02-0.69-0.02-0.89
			c0-0.75-0.3-1.12-0.9-1.12c-0.24,0-0.5,0.09-0.78,0.27c-0.31,0.19-0.46,0.4-0.46,0.61c0,0.48,0,1.19,0.01,2.14
			c0,0.95,0.01,1.66,0.01,2.13c0,0.13-0.02,0.21-0.05,0.24c-0.03,0.03-0.12,0.05-0.25,0.06c-0.25,0.02-0.64,0.03-1.17,0.03
			c-0.35,0-0.74-0.02-1.18-0.05c-0.13-0.01-0.21-0.03-0.24-0.05c-0.02-0.03-0.04-0.1-0.04-0.24c0-0.42,0-1.04,0.01-1.88
			c0-0.83,0.01-1.46,0.01-1.88c0-0.86-0.07-1.82-0.2-2.9c-0.01-0.06-0.02-0.11-0.02-0.14c0-0.09,0.04-0.15,0.12-0.18
			c0.12-0.05,0.35-0.09,0.68-0.12c0.41-0.04,0.66-0.06,0.73-0.07c0.05-0.01,0.27-0.07,0.65-0.17c0.27-0.07,0.49-0.11,0.65-0.11
			c0.1,0,0.16,0.18,0.17,0.55c0,0.36,0.03,0.54,0.07,0.54c0.05-0.02,0.12-0.06,0.19-0.11c0.49-0.37,0.88-0.62,1.17-0.75
			c0.42-0.19,0.88-0.29,1.38-0.29c0.5,0,0.96,0.11,1.35,0.32c0.44,0.24,0.73,0.58,0.86,1.01c0.29-0.38,0.69-0.69,1.2-0.95
			c0.51-0.26,1.01-0.38,1.49-0.38c0.72,0,1.31,0.16,1.77,0.48c0.52,0.36,0.77,0.88,0.77,1.55c0,0.28-0.01,0.7-0.02,1.25
			s-0.02,0.97-0.02,1.25c0,0.33,0.01,0.83,0.02,1.49C154.84,187.5,154.85,188,154.85,188.33z"/>
		<path d="M164.89,181.48c0,0.39-0.02,0.97-0.06,1.74c-0.04,0.78-0.06,1.36-0.06,1.74c0,0.38,0.01,0.94,0.04,1.7
			s0.04,1.32,0.04,1.69c0,0.14-0.07,0.23-0.21,0.27c-0.21,0.05-0.65,0.08-1.33,0.08c-0.6,0-1.02-0.02-1.25-0.05
			c-0.1-0.02-0.17-0.08-0.2-0.19c-0.02-0.16-0.03-0.31-0.05-0.47c-0.03-0.24-0.07-0.36-0.12-0.36c0.08,0-0.2,0.18-0.83,0.53
			c-0.63,0.36-1.21,0.53-1.72,0.53c-1.46,0-2.32-0.63-2.59-1.88c-0.12-0.58-0.18-1.42-0.18-2.53c0-1.19,0.1-2.14,0.31-2.83
			c0.06-0.21,0.17-0.32,0.34-0.32c0.25,0,0.64,0,1.15,0.01c0.52,0,0.9,0.01,1.15,0.01c0.17,0,0.26,0.07,0.26,0.2
			c0,0.04-0.01,0.09-0.02,0.17c-0.12,0.71-0.17,1.43-0.17,2.17c0,0.91,0.03,1.53,0.09,1.87c0.1,0.58,0.46,0.86,1.08,0.86
			c0.24,0,0.5-0.1,0.79-0.31c0.28-0.2,0.43-0.42,0.44-0.64c0.01-0.19,0.02-1.51,0.02-3.94c0-0.17,0.01-0.27,0.04-0.31
			c0.03-0.05,0.13-0.08,0.3-0.08c0.27,0,0.67,0,1.21,0.01c0.54,0.01,0.95,0.01,1.21,0.01c0.17,0,0.26,0.04,0.29,0.12
			C164.89,181.33,164.89,181.4,164.89,181.48z"/>
		<path d="M171.07,182.27c0,0.05-0.04,0.12-0.12,0.21c-0.15-0.04-0.31-0.05-0.46-0.05c-0.32,0-0.6,0.07-0.82,0.2
			c-0.26,0.16-0.39,0.38-0.39,0.67c0,0.18,0.14,0.42,0.42,0.7c0.42,0.42,0.68,0.71,0.78,0.86c0.28,0.4,0.42,0.82,0.42,1.28
			c0,0.27-0.05,0.55-0.17,0.85c-0.13,0.33-0.29,0.57-0.48,0.72c-0.41,0.33-0.88,0.62-1.42,0.85c-0.59,0.24-1.13,0.36-1.62,0.36
			c-0.11,0-0.36-0.28-0.74-0.85s-0.57-0.92-0.57-1.04c0-0.05,0.03-0.08,0.09-0.09c0.38-0.07,0.77-0.14,1.16-0.2
			c0.48-0.15,0.72-0.39,0.72-0.72c0-0.23-0.14-0.5-0.42-0.8c-0.5-0.53-0.76-0.81-0.78-0.84c-0.28-0.38-0.42-0.77-0.42-1.19
			c0-0.79,0.42-1.45,1.25-2c0.75-0.49,1.54-0.73,2.4-0.73c0.09,0,0.3,0.28,0.65,0.84C170.89,181.84,171.07,182.17,171.07,182.27z"/>
		<path d="M175.3,185.02c0,0.38,0.01,0.95,0.02,1.71s0.03,1.32,0.03,1.7c0,0.11-0.07,0.18-0.21,0.2c-0.19,0.03-0.61,0.05-1.26,0.05
			c-0.66,0-1.08-0.02-1.27-0.05c-0.12-0.02-0.2-0.05-0.22-0.1c-0.01-0.02-0.02-0.1-0.02-0.24c0-0.36,0.01-0.9,0.03-1.63
			c0.02-0.72,0.02-1.27,0.02-1.64c0-1.49-0.06-2.67-0.18-3.55c-0.01-0.08-0.02-0.14-0.02-0.17c0-0.1,0.07-0.16,0.22-0.16
			c0.15,0,0.39,0.02,0.7,0.05s0.55,0.05,0.71,0.05s0.4-0.01,0.72-0.04c0.32-0.03,0.56-0.04,0.72-0.04c0.13,0,0.2,0.05,0.2,0.16
			c0,0.02,0,0.07-0.02,0.15C175.36,182.49,175.3,183.67,175.3,185.02z M175.51,179.18c0,0.91-0.54,1.37-1.61,1.37
			c-0.46,0-0.84-0.12-1.14-0.35c-0.33-0.25-0.49-0.59-0.49-1.02c0-0.41,0.17-0.74,0.51-1c0.31-0.24,0.69-0.36,1.13-0.36
			c0.43,0,0.8,0.12,1.11,0.37C175.35,178.44,175.51,178.78,175.51,179.18z"/>
		<path d="M182.34,183.45c0,0-0.17-0.04-0.5-0.13c-0.33-0.08-0.59-0.13-0.79-0.13c-0.49,0-0.88,0.14-1.17,0.42
			c-0.29,0.28-0.44,0.65-0.44,1.12c0,0.48,0.16,0.86,0.48,1.13c0.32,0.28,0.73,0.41,1.24,0.41c0.24,0,0.51-0.06,0.82-0.18
			c0.3-0.12,0.45-0.18,0.43-0.18c0.09,0,0.21,0.33,0.36,1c0.13,0.61,0.19,1.01,0.19,1.21c0,0.2-0.34,0.37-1.02,0.51
			c-0.53,0.11-0.95,0.17-1.28,0.17c-1.21,0-2.2-0.39-2.99-1.16c-0.79-0.78-1.18-1.74-1.18-2.9c0-1.15,0.39-2.11,1.18-2.89
			c0.79-0.78,1.78-1.17,2.99-1.17c0.82,0,1.54,0.17,2.16,0.5c0.14,0.07,0.21,0.14,0.21,0.21c0,0.07-0.08,0.38-0.25,0.93
			c-0.15,0.53-0.25,0.85-0.3,0.96C182.44,183.4,182.39,183.45,182.34,183.45z"/>
		<path d="M186.95,185.02c0,0.38,0.01,0.95,0.02,1.71s0.03,1.32,0.03,1.7c0,0.11-0.07,0.18-0.21,0.2c-0.19,0.03-0.61,0.05-1.26,0.05
			c-0.66,0-1.08-0.02-1.27-0.05c-0.12-0.02-0.2-0.05-0.22-0.1c-0.01-0.02-0.02-0.1-0.02-0.24c0-0.36,0.01-0.9,0.03-1.63
			c0.02-0.72,0.02-1.27,0.02-1.64c0-1.49-0.06-2.67-0.18-3.55c-0.01-0.08-0.02-0.14-0.02-0.17c0-0.1,0.07-0.16,0.22-0.16
			c0.15,0,0.39,0.02,0.7,0.05s0.55,0.05,0.71,0.05s0.4-0.01,0.72-0.04c0.32-0.03,0.56-0.04,0.72-0.04c0.13,0,0.2,0.05,0.2,0.16
			c0,0.02,0,0.07-0.02,0.15C187.01,182.49,186.95,183.67,186.95,185.02z M187.17,179.18c0,0.91-0.54,1.37-1.61,1.37
			c-0.46,0-0.84-0.12-1.14-0.35c-0.33-0.25-0.49-0.59-0.49-1.02c0-0.41,0.17-0.74,0.51-1c0.31-0.24,0.69-0.36,1.13-0.36
			c0.43,0,0.8,0.12,1.11,0.37C187,178.44,187.17,178.78,187.17,179.18z"/>
		<path d="M196.82,184.69c0,0.4,0.02,1,0.07,1.8c0.05,0.8,0.07,1.39,0.07,1.79c0,0.21-0.1,0.32-0.29,0.34
			c-0.68,0.05-1.46,0.07-2.34,0.07c-0.1,0-0.17-0.15-0.21-0.45c-0.04-0.3-0.08-0.45-0.13-0.46c-0.04,0.02-0.1,0.07-0.17,0.13
			c-0.62,0.59-1.27,0.89-1.98,0.89c-1.07,0-1.96-0.4-2.66-1.21c-0.66-0.75-1-1.65-1-2.7c0-1.21,0.34-2.18,1.03-2.92
			c0.71-0.76,1.69-1.15,2.93-1.15c0.86,0,1.54,0.29,2.04,0.86c0.02,0.03,0.04,0.04,0.06,0.04c0.05,0,0.11-0.13,0.17-0.38
			s0.14-0.38,0.23-0.38c0.2,0,0.59,0.05,1.16,0.17c0.54,0.1,0.93,0.19,1.17,0.27c0.08,0.03,0.12,0.07,0.12,0.13
			c0,0.02-0.01,0.08-0.02,0.17C196.91,182.63,196.82,183.64,196.82,184.69z M194.17,184.74c0-0.44-0.15-0.81-0.44-1.1
			c-0.29-0.29-0.68-0.44-1.15-0.44c-0.47,0-0.85,0.14-1.14,0.43c-0.29,0.29-0.44,0.66-0.44,1.11c0,0.42,0.15,0.79,0.46,1.09
			s0.68,0.46,1.12,0.46c0.47,0,0.85-0.15,1.14-0.44C194.02,185.56,194.17,185.19,194.17,184.74z"/>
		<path d="M206.64,188.39c0,0.14-0.08,0.22-0.23,0.24c-0.15,0.02-0.55,0.03-1.2,0.03c-0.69,0-1.12-0.02-1.29-0.05
			c-0.16-0.03-0.25-0.14-0.25-0.32c0-0.25,0.01-0.62,0.03-1.12c0.02-0.5,0.02-0.87,0.02-1.12c0-0.19-0.01-0.48-0.02-0.87
			s-0.02-0.67-0.02-0.87c0-0.72-0.33-1.08-0.98-1.08c-0.21,0-0.46,0.09-0.75,0.27c-0.31,0.2-0.46,0.4-0.46,0.59v4.24
			c0,0.17-0.08,0.27-0.25,0.29c-0.19,0.02-0.58,0.03-1.18,0.03c-0.64,0-1.06-0.02-1.25-0.05c-0.17-0.03-0.26-0.11-0.26-0.26
			c0-0.41,0-1.02,0.01-1.85c0-0.82,0.01-1.44,0.01-1.85c0-1.3-0.11-2.33-0.32-3.07c-0.01-0.05-0.02-0.09-0.02-0.12
			c0-0.08,0.04-0.14,0.12-0.17c0.35-0.04,0.81-0.09,1.38-0.17c0.87-0.16,1.36-0.24,1.47-0.24c0.06,0,0.11,0.18,0.14,0.53
			c0.03,0.35,0.08,0.53,0.14,0.53c-0.06,0,0.23-0.18,0.88-0.55c0.65-0.36,1.22-0.55,1.71-0.55c0.7,0,1.28,0.16,1.75,0.47
			c0.52,0.36,0.78,0.86,0.78,1.51v2.5c0,0.34,0,0.85,0.01,1.53C206.64,187.54,206.64,188.05,206.64,188.39z"/>
		<path d="M212.84,182.27c0,0.05-0.04,0.12-0.12,0.21c-0.15-0.04-0.31-0.05-0.46-0.05c-0.32,0-0.6,0.07-0.82,0.2
			c-0.26,0.16-0.39,0.38-0.39,0.67c0,0.18,0.14,0.42,0.42,0.7c0.42,0.42,0.68,0.71,0.78,0.86c0.28,0.4,0.42,0.82,0.42,1.28
			c0,0.27-0.05,0.55-0.17,0.85c-0.13,0.33-0.29,0.57-0.48,0.72c-0.41,0.33-0.88,0.62-1.42,0.85c-0.59,0.24-1.13,0.36-1.62,0.36
			c-0.11,0-0.36-0.28-0.74-0.85s-0.57-0.92-0.57-1.04c0-0.05,0.03-0.08,0.09-0.09c0.38-0.07,0.77-0.14,1.16-0.2
			c0.48-0.15,0.72-0.39,0.72-0.72c0-0.23-0.14-0.5-0.42-0.8c-0.5-0.53-0.76-0.81-0.78-0.84c-0.28-0.38-0.42-0.77-0.42-1.19
			c0-0.79,0.42-1.45,1.25-2c0.75-0.49,1.54-0.73,2.4-0.73c0.09,0,0.3,0.28,0.65,0.84C212.66,181.84,212.84,182.17,212.84,182.27z"/>
	</g>
</g>
</svg>
